<svg width="1080" height="856" viewBox="0 0 1080 856" fill="none" xmlns="http://www.w3.org/2000/svg">
<g filter="url(#filter0_ddddd_101_6066)">
<path d="M424.418 424.418H451.694V451.694H424.418V424.418ZM424.418 369.865H451.694V397.142H424.418V369.865ZM397.142 397.142H424.418V424.418H397.142V397.142ZM369.865 424.418H397.142V451.694H369.865V424.418ZM342.589 397.142H369.865V424.418H342.589V397.142ZM397.142 342.589H424.418V369.865H397.142V342.589ZM369.865 369.865H397.142V397.142H369.865V369.865ZM342.589 342.589H369.865V369.865H342.589V342.589ZM451.694 197.115V306.22H342.589V197.115H451.694ZM306.22 342.589V451.694H197.115V342.589H306.22ZM306.22 197.115V306.22H197.115V197.115H306.22ZM278.944 424.418V369.865H224.391V424.418H278.944ZM278.944 278.944V224.391H224.391V278.944H278.944ZM424.418 278.944V224.391H369.865V278.944H424.418Z" fill="white"/>
<path d="M41 41H119.057V275.172H41V41Z" fill="#DED510"/>
<path d="M119.057 119.057V41H275.172V119.057H119.057Z" fill="#DED510"/>
<path d="M588.5 587.399L510.443 587.766L509 353.5L587.4 353.23L588.5 587.399Z" fill="#39AEE4"/>
<path d="M510 510L510.443 587.766L354.19 588.5L353.824 510.443L510 510Z" fill="#39AEE4"/>
<path d="M587.402 41V119.057H353.23V41H587.402Z" fill="#49917A"/>
<path d="M509.344 119.057H587.402V275.172H509.344V119.057Z" fill="#49917A"/>
<path d="M42.1005 590.332L41.7401 513.206L275.903 511.175L276.27 589.232L42.1005 590.332Z" fill="#EB5A36"/>
<path d="M120.128 512.526L41.7401 513.206L41.0025 356.162L119.059 355.796L120.128 512.526Z" fill="#EB5A36"/>
</g>
<defs>
<filter id="filter0_ddddd_101_6066" x="0" y="0" width="1079.5" height="1081.33" filterUnits="userSpaceOnUse" color-interpolation-filters="sRGB">
<feFlood flood-opacity="0" result="BackgroundImageFix"/>
<feColorMatrix in="SourceAlpha" type="matrix" values="0 0 0 0 0 0 0 0 0 0 0 0 0 0 0 0 0 0 127 0" result="hardAlpha"/>
<feOffset/>
<feColorMatrix type="matrix" values="0 0 0 0 0.0235294 0 0 0 0 0.0941176 0 0 0 0 0.176471 0 0 0 0.1 0"/>
<feBlend mode="normal" in2="BackgroundImageFix" result="effect1_dropShadow_101_6066"/>
<feColorMatrix in="SourceAlpha" type="matrix" values="0 0 0 0 0 0 0 0 0 0 0 0 0 0 0 0 0 0 127 0" result="hardAlpha"/>
<feOffset dx="20" dy="20"/>
<feGaussianBlur stdDeviation="30.5"/>
<feColorMatrix type="matrix" values="0 0 0 0 0.0235294 0 0 0 0 0.0941176 0 0 0 0 0.176471 0 0 0 0.1 0"/>
<feBlend mode="normal" in2="effect1_dropShadow_101_6066" result="effect2_dropShadow_101_6066"/>
<feColorMatrix in="SourceAlpha" type="matrix" values="0 0 0 0 0 0 0 0 0 0 0 0 0 0 0 0 0 0 127 0" result="hardAlpha"/>
<feOffset dx="78" dy="78"/>
<feGaussianBlur stdDeviation="55.5"/>
<feColorMatrix type="matrix" values="0 0 0 0 0.0235294 0 0 0 0 0.0941176 0 0 0 0 0.176471 0 0 0 0.09 0"/>
<feBlend mode="normal" in2="effect2_dropShadow_101_6066" result="effect3_dropShadow_101_6066"/>
<feColorMatrix in="SourceAlpha" type="matrix" values="0 0 0 0 0 0 0 0 0 0 0 0 0 0 0 0 0 0 127 0" result="hardAlpha"/>
<feOffset dx="176" dy="176"/>
<feGaussianBlur stdDeviation="75"/>
<feColorMatrix type="matrix" values="0 0 0 0 0.0235294 0 0 0 0 0.0941176 0 0 0 0 0.176471 0 0 0 0.05 0"/>
<feBlend mode="normal" in2="effect3_dropShadow_101_6066" result="effect4_dropShadow_101_6066"/>
<feColorMatrix in="SourceAlpha" type="matrix" values="0 0 0 0 0 0 0 0 0 0 0 0 0 0 0 0 0 0 127 0" result="hardAlpha"/>
<feOffset dx="314" dy="314"/>
<feGaussianBlur stdDeviation="88.5"/>
<feColorMatrix type="matrix" values="0 0 0 0 0.0235294 0 0 0 0 0.0941176 0 0 0 0 0.176471 0 0 0 0.01 0"/>
<feBlend mode="normal" in2="effect4_dropShadow_101_6066" result="effect5_dropShadow_101_6066"/>
<feBlend mode="normal" in="SourceGraphic" in2="effect5_dropShadow_101_6066" result="shape"/>
</filter>
</defs>
</svg>
